<?xml version="1.0" encoding="utf-8"?>
<!-- Generator: Adobe Illustrator 16.0.0, SVG Export Plug-In . SVG Version: 6.00 Build 0)  -->
<!DOCTYPE svg PUBLIC "-//W3C//DTD SVG 1.1//EN" "http://www.w3.org/Graphics/SVG/1.1/DTD/svg11.dtd">
<svg version="1.1" id="Layer_1" xmlns="http://www.w3.org/2000/svg" xmlns:xlink="http://www.w3.org/1999/xlink" x="0px" y="0px"
	 width="60px" height="60px" viewBox="0 0 60 60" enable-background="new 0 0 60 60" xml:space="preserve">
<g>
	<path fill="none" d="M37.594,12.237c-2.936,3.712-5.279,7.798-7.496,11.95c-0.969,1.818-1.938,3.636-2.753,5.524
		c0.578-1.342,1.687-2.642,2.539-3.824c2.782-3.862,5.752-7.589,8.741-11.298c3.459-4.289,8.916-11.114,8.26-10.684
		C43.219,6.312,40.271,8.845,37.594,12.237z"/>
	<path fill="#6C49E1" d="M31.324,15.925c-0.594,0.935-1.546,3.142-2.59,5.78l-5.502,0.553l-9.603,13.888l8.29-5.756l1.6,0.963
		c-1.935,2.704-1.959,4.35-1.959,4.35l5.479,3.847c0,0,2.066-0.808,4.024-3.116l1.541,1.099l-2.398,9.697l9.603-13.886l-1.457-5.193
		c2.27-2.046,4.199-3.886,5.045-4.936c2.768-3.439,3.582-7.557,5.93-13.644c0.002,0,0.002,0,0.002,0
		c0.85-2.855,1.258-5.832,0.727-8.57c-2.783,0.521-5.449,1.985-7.84,3.813c0.002,0.002,0.002,0.002,0.004,0.004
		C37.197,9.01,33.162,13.041,31.324,15.925z M38.625,14.59c-2.988,3.709-5.959,7.436-8.741,11.298
		c-0.853,1.183-1.961,2.482-2.539,3.824c0.815-1.889,1.784-3.706,2.753-5.524c2.216-4.152,4.56-8.238,7.496-11.95
		c2.678-3.393,5.625-5.926,9.291-8.331C47.541,3.476,42.084,10.301,38.625,14.59z"/>
	<path fill="#6C49E1" d="M21.358,36.13C21.339,36.167,9.462,57.103,9.355,57.385c-0.145,0.382,0.392,0.729,0.731,0.452
		c0.279-0.225,16.146-17.349,16.662-17.914L21.358,36.13z M12.578,53.492c0.029-0.05,0.056-0.099,0.084-0.147
		c0.012,0.008,0.023,0.013,0.032,0.022C12.656,53.411,12.619,53.451,12.578,53.492z"/>
	<path fill="#6C49E1" d="M11.901,47.243c-4.197-4.382-6.777-10.279-6.777-16.761C5.124,16.992,16.283,6.02,30,6.02
		c2.71,0,3.939,0.034,6.386,0.827c1.068-0.993,2.207-2.149,3.395-3.217C36.346,2.221,33.955,1.964,30,1.964
		C13.984,1.964,1,14.732,1,30.482c0,7.893,3.266,15.03,8.532,20.192c0.015,0.013,0.036,0.013,0.05,0.021l2.367-3.316
		C11.944,47.319,11.93,47.274,11.901,47.243z"/>
	<path fill="#6C49E1" d="M51.189,11.08c-0.59,1.555-1.223,2.889-1.682,4.206c3.873,4.313,5.367,9.004,5.367,15.196
		c0,13.487-11.16,24.462-24.875,24.462c-4.699,0-7.634-0.348-11.388-2.583c-1.016,1.094-2,1.872-2.852,2.782
		C20.284,58.01,24.222,59,30,59c16.017,0,29-12.77,29-28.518C59,22.454,56.621,16.263,51.189,11.08z"/>
	<path fill="#FFC107" d="M12.578,53.492c0.041-0.041,0.078-0.081,0.116-0.125c-0.009-0.01-0.021-0.015-0.032-0.022
		C12.633,53.394,12.607,53.442,12.578,53.492z"/>
</g>
</svg>
