<?xml version="1.0" encoding="utf-8"?>
<!-- Generator: Adobe Illustrator 16.0.0, SVG Export Plug-In . SVG Version: 6.00 Build 0)  -->
<!DOCTYPE svg PUBLIC "-//W3C//DTD SVG 1.1//EN" "http://www.w3.org/Graphics/SVG/1.1/DTD/svg11.dtd">
<svg version="1.1" id="Layer_1" xmlns="http://www.w3.org/2000/svg" xmlns:xlink="http://www.w3.org/1999/xlink" x="0px" y="0px"
	 width="60px" height="60px" viewBox="0 0 60 60" enable-background="new 0 0 60 60" xml:space="preserve">
<g>
	<path fill="#F71568" d="M55.87,45.92c0,4.138-3.354,7.491-7.492,7.491l0,0c-4.137,0-7.491-3.354-7.491-7.491V14.081
		c0-4.138,3.354-7.492,7.491-7.492l0,0c4.138,0,7.492,3.354,7.492,7.492V45.92z"/>
	<path fill="#EA6EA6" d="M37.492,45.92c0,4.138-3.355,7.491-7.492,7.491l0,0c-4.137,0-7.492-3.354-7.492-7.491V27.191
		c0-4.138,3.354-7.492,7.492-7.492l0,0c4.137,0,7.492,3.354,7.492,7.492V45.92z"/>
	<path fill="#E291BA" d="M19.114,45.92c0,4.138-3.355,7.491-7.492,7.491l0,0c-4.137,0-7.492-3.354-7.492-7.491v-3.746
		c0-4.137,3.355-7.492,7.492-7.492l0,0c4.137,0,7.492,3.355,7.492,7.492V45.92z"/>
</g>
</svg>
