<?xml version="1.0" encoding="utf-8"?>
<!-- Generator: Adobe Illustrator 16.0.0, SVG Export Plug-In . SVG Version: 6.00 Build 0)  -->
<!DOCTYPE svg PUBLIC "-//W3C//DTD SVG 1.1//EN" "http://www.w3.org/Graphics/SVG/1.1/DTD/svg11.dtd">
<svg version="1.1" id="Layer_1" xmlns="http://www.w3.org/2000/svg" xmlns:xlink="http://www.w3.org/1999/xlink" x="0px" y="0px"
	 width="60px" height="60px" viewBox="0 0 60 60" enable-background="new 0 0 60 60" xml:space="preserve">
<g>
	<g>
		
			<linearGradient id="SVGID_1_" gradientUnits="userSpaceOnUse" x1="338.5371" y1="-222.4365" x2="328.464" y2="-279.564" gradientTransform="matrix(1 0 0 -1 -303.5 -221)">
			<stop  offset="0" style="stop-color:#391787"/>
			<stop  offset="1" style="stop-color:#0065DB"/>
		</linearGradient>
		<path fill="url(#SVGID_1_)" d="M29.999,2.696c15.05,0,27.295,12.248,27.295,27.305c0,15.054-12.244,27.304-27.295,27.304
			c-15.05,0-27.293-12.25-27.293-27.304C2.706,14.945,14.95,2.696,29.999,2.696 M29.999,1C13.981,1,1,13.986,1,30.001
			C1,46.017,13.981,59,29.999,59S59,46.017,59,30.001S46.017,1,29.999,1L29.999,1z"/>
	</g>
	
		<linearGradient id="SVGID_2_" gradientUnits="userSpaceOnUse" x1="325.8994" y1="-240.4658" x2="322.0528" y2="-262.2806" gradientTransform="matrix(1 0 0 -1 -303.5 -221)">
		<stop  offset="0" style="stop-color:#391787"/>
		<stop  offset="1" style="stop-color:#0065DB"/>
	</linearGradient>
	<path fill="url(#SVGID_2_)" d="M29.44,35.319c-0.353,1.231-0.883,2.318-1.61,3.253c-0.709,0.921-1.634,1.654-2.742,2.185
		c-1.12,0.529-2.437,0.793-3.977,0.793c-1.596,0-2.945-0.282-4.073-0.843c-1.123-0.556-2.029-1.305-2.746-2.246
		c-0.692-0.933-1.212-2.017-1.535-3.253c-0.332-1.244-0.489-2.542-0.489-3.895V20.798h4.604v10.516c0,0.798,0.076,1.554,0.223,2.264
		c0.15,0.723,0.385,1.353,0.73,1.919c0.341,0.56,0.766,1.006,1.312,1.332c0.524,0.329,1.182,0.492,1.976,0.492
		c0.79,0,1.445-0.166,1.99-0.506c0.545-0.339,0.992-0.787,1.315-1.347c0.341-0.562,0.582-1.207,0.724-1.935
		c0.138-0.719,0.211-1.456,0.211-2.221V20.8h4.605v10.513h0.002C29.956,32.751,29.782,34.082,29.44,35.319z"/>
	<g>
		
			<linearGradient id="SVGID_3_" gradientUnits="userSpaceOnUse" x1="344.8672" y1="-241.4331" x2="340.9516" y2="-263.6394" gradientTransform="matrix(1 0 0 -1 -303.5 -221)">
			<stop  offset="0" style="stop-color:#391787"/>
			<stop  offset="1" style="stop-color:#0065DB"/>
		</linearGradient>
		<path fill="url(#SVGID_3_)" d="M48.531,36.224c0,0.896-0.188,1.677-0.561,2.34c-0.372,0.665-0.881,1.216-1.528,1.653
			c-0.646,0.44-1.401,0.771-2.265,0.994c-0.861,0.226-1.773,0.338-2.734,0.338H31.268V20.773h11.616
			c0.725,0,1.383,0.156,1.971,0.468c0.589,0.313,1.089,0.719,1.501,1.214c0.41,0.496,0.729,1.065,0.955,1.696
			c0.225,0.637,0.339,1.285,0.339,1.947c0,0.997-0.25,1.932-0.752,2.81c-0.5,0.877-1.248,1.54-2.248,1.988
			c1.194,0.353,2.141,0.978,2.838,1.875C48.184,33.668,48.531,34.82,48.531,36.224z M36.091,24.87v4.301h4.737
			c0.528,0,0.998-0.175,1.409-0.525c0.412-0.352,0.617-0.896,0.617-1.641c0-0.682-0.18-1.206-0.544-1.577
			c-0.362-0.371-0.8-0.557-1.309-0.557L36.091,24.87L36.091,24.87z M43.618,35.259c0-0.644-0.185-1.19-0.557-1.64
			c-0.375-0.447-0.844-0.674-1.414-0.674h-5.557v4.535h5.353c0.627,0,1.146-0.203,1.559-0.612
			C43.413,36.459,43.618,35.92,43.618,35.259z"/>
	</g>
</g>
</svg>
