<?xml version="1.0" encoding="utf-8"?>
<!-- Generator: Adobe Illustrator 16.0.0, SVG Export Plug-In . SVG Version: 6.00 Build 0)  -->
<!DOCTYPE svg PUBLIC "-//W3C//DTD SVG 1.1//EN" "http://www.w3.org/Graphics/SVG/1.1/DTD/svg11.dtd">
<svg version="1.1" id="Layer_1" xmlns="http://www.w3.org/2000/svg" xmlns:xlink="http://www.w3.org/1999/xlink" x="0px" y="0px"
	 width="60px" height="60px" viewBox="0 0 60 60" enable-background="new 0 0 60 60" xml:space="preserve">
<g>
	<g>
		<path fill="#5124B3" d="M30,2.698c15.051,0,27.295,12.246,27.295,27.302c0,15.056-12.242,27.303-27.295,27.303
			C14.951,57.303,2.705,45.056,2.705,30C2.705,14.943,14.952,2.698,30,2.698 M30,1C13.98,1,1,13.987,1,30c0,16.018,12.98,29,29,29
			c16.019,0,29-12.982,29-29C59,13.987,46.018,1,30,1L30,1z"/>
	</g>
	<path fill="#5124B3" d="M29.44,35.309c-0.352,1.226-0.881,2.318-1.61,3.248c-0.71,0.921-1.633,1.654-2.741,2.188
		c-1.121,0.526-2.437,0.793-3.978,0.793c-1.595,0-2.946-0.282-4.074-0.845c-1.121-0.555-2.027-1.304-2.746-2.247
		c-0.691-0.93-1.209-2.014-1.535-3.251c-0.332-1.244-0.488-2.54-0.488-3.896V20.786h4.603V31.3c0,0.797,0.077,1.551,0.224,2.264
		c0.152,0.725,0.386,1.355,0.73,1.919c0.341,0.562,0.766,1.009,1.311,1.329c0.525,0.33,1.184,0.495,1.977,0.495
		c0.791,0,1.445-0.166,1.988-0.507c0.548-0.337,0.993-0.787,1.318-1.348c0.341-0.562,0.579-1.204,0.721-1.933
		c0.139-0.721,0.214-1.458,0.214-2.22V20.787h4.603V31.3h0.002C29.955,32.737,29.782,34.069,29.44,35.309z"/>
	<rect x="33.787" y="37.239" fill="#5124B3" width="13.945" height="4.299"/>
	<rect x="33.787" y="29.011" fill="#5124B3" width="13.945" height="4.297"/>
	<rect x="33.787" y="20.786" fill="#5124B3" width="13.945" height="4.297"/>
</g>
</svg>
