<?xml version="1.0" encoding="utf-8"?>
<!-- Generator: Adobe Illustrator 16.0.0, SVG Export Plug-In . SVG Version: 6.00 Build 0)  -->
<!DOCTYPE svg PUBLIC "-//W3C//DTD SVG 1.1//EN" "http://www.w3.org/Graphics/SVG/1.1/DTD/svg11.dtd">
<svg version="1.1" id="Layer_1" xmlns="http://www.w3.org/2000/svg" xmlns:xlink="http://www.w3.org/1999/xlink" x="0px" y="0px"
	 width="28px" height="28px" viewBox="0 0 28 28" enable-background="new 0 0 28 28" xml:space="preserve">
<g>
	<g>
		<g>
			<g>
				
					<linearGradient id="SVGID_1_" gradientUnits="userSpaceOnUse" x1="183.4316" y1="341.2109" x2="178.5687" y2="368.7899" gradientTransform="matrix(1 0 0 1 -167 -341)">
					<stop  offset="0" style="stop-color:#8E2DE2"/>
					<stop  offset="1" style="stop-color:#4A00E0"/>
				</linearGradient>
				<path fill="url(#SVGID_1_)" d="M14,0.82c7.265,0,13.177,5.913,13.177,13.18c0,7.268-5.911,13.181-13.177,13.181
					S0.824,21.268,0.824,14C0.824,6.733,6.734,0.82,14,0.82 M14,0C6.267,0,0,6.269,0,14c0,7.731,6.267,14,14,14
					c7.732,0,14-6.269,14-14C28,6.269,21.732,0,14,0L14,0z"/>
			</g>
		</g>
	</g>
	<g>
		
			<linearGradient id="SVGID_2_" gradientUnits="userSpaceOnUse" x1="176.5293" y1="350.4824" x2="174.8539" y2="359.9838" gradientTransform="matrix(1 0 0 1 -167 -341)">
			<stop  offset="0" style="stop-color:#8E2DE2"/>
			<stop  offset="1" style="stop-color:#4A00E0"/>
		</linearGradient>
		<path fill="url(#SVGID_2_)" d="M8.967,17.257c0.353,0,0.65-0.073,0.895-0.221c0.243-0.146,0.44-0.342,0.591-0.585
			c0.151-0.243,0.259-0.522,0.321-0.837c0.063-0.315,0.095-0.636,0.095-0.963v-4.569h2.064v4.569c0,0.621-0.078,1.199-0.233,1.737
			c-0.155,0.536-0.394,1.006-0.717,1.409s-0.735,0.721-1.234,0.951s-1.093,0.346-1.781,0.346c-0.713,0-1.321-0.121-1.825-0.365
			c-0.503-0.243-0.913-0.568-1.228-0.976c-0.314-0.406-0.545-0.879-0.692-1.416c-0.146-0.537-0.22-1.1-0.22-1.687v-4.569h2.064
			v4.569c0,0.345,0.033,0.671,0.101,0.981s0.177,0.587,0.327,0.831c0.151,0.243,0.347,0.437,0.586,0.579S8.614,17.257,8.967,17.257z
			"/>
		
			<linearGradient id="SVGID_3_" gradientUnits="userSpaceOnUse" x1="186.3457" y1="351.0879" x2="184.7648" y2="360.0536" gradientTransform="matrix(1 0 0 1 -167 -341)">
			<stop  offset="0" style="stop-color:#8E2DE2"/>
			<stop  offset="1" style="stop-color:#4A00E0"/>
		</linearGradient>
		<path fill="url(#SVGID_3_)" d="M20.674,18.138c-0.68,0.63-1.465,0.944-2.354,0.944c-0.588,0-1.142-0.11-1.661-0.333
			c-0.521-0.223-0.976-0.535-1.366-0.938c-0.39-0.402-0.698-0.888-0.925-1.454s-0.34-1.189-0.34-1.869
			c0-0.612,0.113-1.192,0.34-1.737c0.227-0.545,0.538-1.02,0.938-1.422c0.398-0.403,0.87-0.722,1.416-0.957
			c0.546-0.234,1.133-0.353,1.762-0.353c0.831,0,1.557,0.175,2.179,0.522c0.621,0.349,1.086,0.825,1.396,1.429l-1.535,1.158
			c-0.201-0.402-0.493-0.715-0.875-0.938c-0.383-0.222-0.795-0.333-1.24-0.333c-0.344,0-0.656,0.069-0.938,0.208
			s-0.522,0.332-0.724,0.58c-0.202,0.247-0.356,0.535-0.466,0.862c-0.109,0.327-0.164,0.68-0.164,1.057
			c0,0.386,0.059,0.743,0.177,1.069c0.116,0.328,0.28,0.611,0.49,0.851s0.46,0.426,0.749,0.561c0.289,0.134,0.61,0.201,0.963,0.201
			c0.806,0,1.532-0.373,2.178-1.12v-0.277h-1.737V14.35h3.449v4.67h-1.712V18.138L20.674,18.138z"/>
	</g>
</g>
</svg>
