<?xml version="1.0" encoding="utf-8"?>
<!-- Generator: Adobe Illustrator 16.0.0, SVG Export Plug-In . SVG Version: 6.00 Build 0)  -->
<!DOCTYPE svg PUBLIC "-//W3C//DTD SVG 1.1//EN" "http://www.w3.org/Graphics/SVG/1.1/DTD/svg11.dtd">
<svg version="1.1" id="Layer_1" xmlns="http://www.w3.org/2000/svg" xmlns:xlink="http://www.w3.org/1999/xlink" x="0px" y="0px"
	 width="176px" height="22px" viewBox="0 0 176 22" enable-background="new 0 0 176 22" xml:space="preserve">
<g>
	<g>
		<g>
			<path fill="#ffffff" d="M15.974,15.108c0,0.246-0.09,0.461-0.271,0.643c-0.181,0.18-0.395,0.27-0.642,0.27h-4.564
				c-0.248,0-0.462-0.09-0.642-0.27c-0.182-0.182-0.271-0.396-0.271-0.643v-2.282H0v6.847c0,0.628,0.223,1.164,0.67,1.611
				c0.446,0.447,0.984,0.67,1.612,0.67h20.995c0.627,0,1.165-0.223,1.611-0.67c0.447-0.447,0.671-0.983,0.671-1.611v-6.847h-9.585
				V15.108z M15.974,15.108"/>
			<rect x="10.954" y="12.826" fill="#ffffff" width="3.651" height="1.825"/>
			<path fill="#ffffff" d="M24.889,4.368c-0.446-0.446-0.984-0.669-1.611-0.669h-5.021V1.416c0-0.381-0.133-0.704-0.399-0.97
				c-0.266-0.266-0.589-0.4-0.97-0.4H8.672c-0.38,0-0.703,0.134-0.971,0.4c-0.266,0.265-0.399,0.589-0.399,0.97v2.283h-5.02
				c-0.628,0-1.166,0.223-1.612,0.669C0.223,4.815,0,5.352,0,5.98v5.477h25.56V5.98C25.56,5.352,25.336,4.815,24.889,4.368
				L24.889,4.368z M16.431,3.699H9.129V1.872h7.302V3.699z M16.431,3.699"/>
		</g>
	</g>
	<g>
		<path fill="#ffffff" d="M35.088,3.937l2.958,11.278l2.937-11.278h3.981l2.959,11.278L50.86,3.937h4.183L49.904,19.53h-4.205
			L42.896,9.009L40.004,19.53h-4.182L30.706,3.937H35.088z"/>
		<path fill="#ffffff" d="M69.523,9.41c0,3.669-2.292,5.805-6.273,5.805h-2.781v4.315h-4.071V3.937h6.852
			C67.23,3.937,69.523,5.939,69.523,9.41z M65.651,9.543c0-1.535-0.956-2.358-2.603-2.358h-2.581v4.782h2.581
			C64.695,11.967,65.651,11.122,65.651,9.543z"/>
		<path fill="#ffffff" d="M91.32,9.41c0,3.669-2.291,5.805-6.273,5.805h-2.781v4.315h-4.071V3.937h6.852
			C89.029,3.937,91.32,5.939,91.32,9.41z M87.45,9.543c0-1.535-0.956-2.358-2.603-2.358h-2.581v4.782h2.581
			C86.494,11.967,87.45,11.122,87.45,9.543z"/>
		<path fill="#ffffff" d="M105.489,13.503c0,3.715-2.624,6.162-6.584,6.162s-6.563-2.447-6.563-6.162c0-3.693,2.603-6.14,6.563-6.14
			S105.489,9.81,105.489,13.503z M96.324,13.548c0,1.801,1.047,3.003,2.581,3.003c1.556,0,2.603-1.202,2.603-3.003
			c0-1.78-1.047-2.981-2.603-2.981C97.371,10.566,96.324,11.768,96.324,13.548z"/>
		<path fill="#ffffff" d="M115.343,7.34v3.626c-2.202-0.222-3.671,0.757-3.871,2.424v6.14h-3.96V7.496h3.96v2.002
			C112.295,8.119,113.652,7.34,115.343,7.34z"/>
		<path fill="#ffffff" d="M124.907,18.908c-0.867,0.512-2.069,0.802-3.248,0.802c-2.336,0.021-4.025-1.358-4.025-3.85V10.7h-1.669
			V8.075h1.669V4.738h3.937v3.337h3.115V10.7h-3.115v4.539c0,0.889,0.4,1.289,1.091,1.268c0.4,0,0.912-0.155,1.49-0.4
			L124.907,18.908z"/>
		<path fill="#ffffff" d="M131.446,7.296v0.778h2.669V10.7h-2.669v8.831h-3.937V10.7h-1.624V8.075h1.624V6.962
			c0-2.647,2.002-4.138,4.627-4.115c1.2,0,2.514,0.311,3.426,0.845l-1.379,2.803c-0.425-0.312-0.957-0.489-1.379-0.489
			C132.024,6.006,131.446,6.428,131.446,7.296z"/>
		<path fill="#ffffff" d="M147.641,13.503c0,3.715-2.624,6.162-6.584,6.162s-6.563-2.447-6.563-6.162c0-3.693,2.603-6.14,6.563-6.14
			S147.641,9.81,147.641,13.503z M138.476,13.548c0,1.801,1.047,3.003,2.581,3.003c1.556,0,2.603-1.202,2.603-3.003
			c0-1.78-1.047-2.981-2.603-2.981C139.522,10.566,138.476,11.768,138.476,13.548z"/>
		<path fill="#ffffff" d="M153.736,3.025V19.53h-3.96V3.025H153.736z"/>
		<path fill="#ffffff" d="M160.808,7.496V19.53h-3.937V7.496H160.808z M160.652,4.115c0,1.046-0.757,1.802-1.803,1.802
			c-1.045,0-1.802-0.756-1.802-1.802c0-1.068,0.757-1.824,1.802-1.824C159.896,2.291,160.652,3.047,160.652,4.115z"/>
		<path fill="#ffffff" d="M176,13.503c0,3.715-2.624,6.162-6.584,6.162s-6.563-2.447-6.563-6.162c0-3.693,2.603-6.14,6.563-6.14
			S176,9.81,176,13.503z M166.835,13.548c0,1.801,1.047,3.003,2.581,3.003c1.557,0,2.603-1.202,2.603-3.003
			c0-1.78-1.046-2.981-2.603-2.981C167.882,10.566,166.835,11.768,166.835,13.548z"/>
	</g>
</g>
</svg>
